<?xml version="1.0" encoding="UTF-8"?><svg id="a" xmlns="http://www.w3.org/2000/svg" viewBox="0 0 425.01 389.32"><path d="M237.32,92.94c0,.93-.05,1.86-.14,2.78-.27,2.68-.93,5.24-1.92,7.64-1.71,4.2-4.45,7.9-7.9,10.81-.06.06-.12.11-.18.15-3.57,2.99-7.88,5.15-12.66,6.17h-.01c-2.05.45-4.19.68-6.38.68s-4.33-.23-6.38-.68h-.01c-4.77-1.02-9.09-3.18-12.67-6.17-.06-.03-.11-.08-.17-.14-3.45-2.92-6.19-6.62-7.9-10.82-1-2.41-1.65-4.97-1.92-7.64-.09-.92-.14-1.84-.14-2.78,0-.15,0-.3.01-.45,1.83-.39,3.68-.75,5.54-1.06,1.46-.25,2.94-.49,4.42-.68,1.93-.27,3.88-.5,5.84-.68,0,0,0,0,.01,0,1.1-.11,2.21-.19,3.31-.27.55-.04,1.11-.08,1.66-.11,2.78-.17,5.59-.25,8.41-.25,4.52,0,8.98.21,13.38.63h.01c1.96.19,3.91.42,5.84.69,1.48.19,2.95.43,4.42.68,1.86.31,3.71.67,5.54,1.06.01.15.01.3.01.45Z" fill="#fff"/><path d="M237.43,170.12c0,3.31-.02,6.67-.04,9.7-.02,3.66-.04,6.85-.06,8.9,0,1.55-.01,2.45-.01,2.45h-58.92v-2.45c.01-1.98.01-5.01.02-8.49.02-3.14.04-6.64.07-10.11.02-3.51.06-6.97.11-9.95.07-4.4.17-7.75.31-8.65h.08c.35-5.05,2.08-9.75,4.83-13.72,1.23-1.78,2.67-3.42,4.28-4.88.13-.13.26-.24.4-.37.12-.11.24-.21.37-.31.95-.81,1.95-1.56,3.01-2.24,4.64-3,10.22-4.75,16.22-4.75s11.6,1.76,16.24,4.77c1.05.68,2.04,1.42,2.99,2.23.12.1.24.2.36.31.14.12.27.23.4.36,1.6,1.45,3.04,3.08,4.26,4.85,2.77,3.98,4.51,8.68,4.86,13.75h.08c.09.58.12,4.11.12,8.83.01,2.93.01,6.32-.01,9.77Z" fill="#fff"/><path d="M238.28,77.12c.01,2.68-.03,5.49-.14,8.16-.06,1.42-.15,2.79-.26,4.1-.27-.06-.54-.12-.82-.18-.82-.18-1.64-.34-2.47-.5-2.4-.47-4.8-.87-7.24-1.2-3.13-.44-6.3-.77-9.51-.98-3.21-.22-6.45-.34-9.73-.34s-6.52.12-9.73.34c-3.2.21-6.37.55-9.51.98-2.44.33-4.85.73-7.24,1.2-.83.16-1.65.32-2.47.5-.39.08-.78.17-1.17.24-.11-1.54-.19-3.05-.25-4.5-.13-2.8-.18-5.43-.19-7.83-.03-2.98.02-5.61.09-7.75.14-3.96.35-6.31.35-6.31l4.17,1.95,6.71,3.14,2.93,1.36,16.29,7.62h.02l16.2-7.66,3.02-1.42,6.61-3.13,3.92-1.85s.14,2.37.25,5.88c.07,2.34.14,5.18.15,8.18Z" fill="#fff"/><line x1="178.01" y1="89.45" x2="178.01" y2="89.44" fill="none" stroke="#9e9d9c" stroke-miterlimit="10" stroke-width=".5"/><path d="M237.88,89.42v-.05" fill="none" stroke="#9e9d9c" stroke-miterlimit="10" stroke-width=".5"/><polygon points="246.59 56.57 242.09 58.52 231.92 62.92 227.35 64.89 221.05 67.62 215.41 70.06 208.12 73.22 200.65 69.89 195.37 67.53 188.89 64.64 184.55 62.7 175.15 58.52 169.65 56.06 181.3 51.17 188.89 47.99 208.12 39.92 227.35 48.24 234.69 51.42 246.59 56.57" fill="#fff"/><path d="M236.97,209.61c0,1.79-.7,3.5-2,5.06-1.66,2.03-4.29,3.82-7.61,5.24-3.75,1.61-8.38,2.76-13.49,3.25-.22-.67-.56-1.29-1.01-1.83-1.11-1.34-2.82-2.21-4.73-2.21s-3.63.87-4.73,2.21c-.44.55-.79,1.16-1.01,1.83-5.13-.5-9.75-1.65-13.49-3.25-3.32-1.42-5.96-3.21-7.61-5.24-1.3-1.57-2-3.27-2-5.06,0-.78.13-1.55.4-2.29.62-1.83,2.01-3.54,4-5.05,1.44-1.1,3.2-2.1,5.22-2.96,3.22-1.38,7.1-2.42,11.38-3,2.5-.34,5.14-.53,7.85-.53s5.36.19,7.85.53c4.28.57,8.16,1.62,11.38,3,2.01.86,3.78,1.86,5.22,2.96,1.98,1.51,3.36,3.22,4,5.05.27.74.4,1.51.4,2.29Z" fill="#fff"/><path d="M237.75,225.92c-.04,2.72-.1,5.75-.2,8.74-.12,3.51-.3,6.98-.57,9.86h-57.7c-.55-3.03-.88-6.68-1.06-10.33-.15-2.83-.2-5.69-.21-8.27,0-3.45.07-6.41.13-8.21.04-1.18.07-1.86.07-1.86,0,0,.3.35.91.92,1.5,1.42,4.86,4.25,9.78,6.38,3.38,1.48,7.57,2.63,12.34,2.78.31,0,.63,0,.96,0,.24,1.46,1.05,2.72,2.2,3.6,1.03.79,2.34,1.26,3.75,1.26s2.72-.47,3.75-1.26c1.15-.89,1.95-2.15,2.2-3.61,5.28,0,9.77-1.16,13.29-2.69,5.08-2.19,8.33-5.15,9.68-6.56.5-.51.75-.82.75-.82v1.54c.01,1.76.01,4.87-.03,8.53Z" fill="#fff"/><path d="M210.95,224.95c0,.34-.06.66-.18.96-.22.58-.65,1.07-1.21,1.38-.42.25-.92.39-1.44.39s-1.02-.14-1.44-.39c-.55-.31-.99-.8-1.21-1.38-.12-.3-.18-.62-.18-.96,0-.52.14-.98.4-1.39.03-.07.06-.13.11-.18.5-.71,1.35-1.17,2.32-1.17s1.8.46,2.32,1.17c.04.05.08.11.11.18.25.41.4.88.4,1.39Z" fill="#fff"/><path d="M143.84,188.75c0,11.82-2.96,21.85-8.88,30.07-5.92,8.22-14.38,14.55-25.36,18.98-10.99,4.43-23.93,6.65-38.83,6.65-7.64,0-14.95-.37-21.92-1.11-6.98-.74-13.32-1.8-19.05-3.19-5.73-1.38-10.79-3.09-15.19-5.13v-23.83c6.88,2.96,15.42,5.64,25.65,8.04,10.22,2.4,20.77,3.6,31.66,3.6,10.12,0,18.62-1.29,25.5-3.88,6.88-2.58,12.03-6.28,15.47-11.08,3.44-4.8,5.16-10.43,5.16-16.9s-1.43-11.92-4.3-16.35c-2.87-4.43-7.79-8.54-14.76-12.33-6.98-3.78-16.67-7.8-29.08-12.05-8.79-3.14-16.48-6.51-23.07-10.11s-12.08-7.71-16.48-12.33c-4.4-4.62-7.69-9.88-9.89-15.79-2.2-5.91-3.29-12.75-3.29-20.51,0-10.53,2.77-19.54,8.31-27.02,5.54-7.48,13.23-13.25,23.07-17.32,9.84-4.06,21.15-6.1,33.95-6.1,11.27,0,21.58,1.02,30.95,3.05,9.36,2.03,17.86,4.71,25.5,8.04l-8.02,21.34c-7.07-2.95-14.76-5.45-23.07-7.48-8.31-2.03-16.96-3.05-25.93-3.05s-15.76,1.2-21.49,3.6c-5.73,2.4-10.03,5.78-12.89,10.11-2.87,4.34-4.3,9.38-4.3,15.1,0,6.65,1.43,12.19,4.3,16.63,2.87,4.43,7.54,8.41,14.04,11.92,6.49,3.51,15.28,7.3,26.36,11.36,12.03,4.25,22.21,8.82,30.52,13.72,8.31,4.9,14.61,10.76,18.91,17.6,4.3,6.84,6.45,15.43,6.45,25.77Z" fill="#fff"/><path d="M330.93,40.78c27.52,0,47.58,5.23,60.16,15.69,12.58,10.46,18.87,25.2,18.87,44.21,0,8.37-1.43,16.4-4.28,24.1-2.85,7.7-7.52,14.6-14.01,20.68-6.49,6.09-15.14,10.89-25.95,14.4-10.82,3.52-24.09,5.28-39.81,5.28h-24.18v79.29h-26.54V40.78h55.74ZM328.57,62.75h-26.84v80.43h21.23c13.37,0,24.48-1.38,33.33-4.14,8.85-2.75,15.43-7.17,19.76-13.26,4.32-6.08,6.49-14.07,6.49-23.96,0-13.12-4.33-22.91-12.98-29.38-8.65-6.46-22.32-9.7-40.99-9.7Z" fill="#fff"/><g id="b"><rect x="4.87" y="269.98" width="416.02" height="53.25" fill="none"/><path d="M39.06,280.51c0,.79-.2,1.47-.6,2.02-.4.56-.97.99-1.71,1.29-.74.3-1.63.46-2.65.46-.5,0-.98-.03-1.44-.08-.46-.06-.89-.13-1.29-.23-.4-.1-.75-.22-1.06-.37v-1.89c.51.22,1.11.42,1.8.6.69.18,1.4.27,2.11.27.61,0,1.13-.08,1.54-.24s.72-.38.92-.67c.2-.28.31-.62.31-1,0-.41-.11-.75-.32-1.03-.21-.28-.54-.54-.98-.78-.44-.24-1.03-.5-1.78-.77-.51-.19-.98-.39-1.39-.62-.42-.23-.78-.5-1.09-.81-.31-.31-.55-.67-.72-1.08-.17-.41-.25-.89-.25-1.43,0-.73.19-1.36.57-1.88.38-.52.9-.92,1.56-1.2.67-.28,1.44-.42,2.32-.42.74,0,1.43.07,2.06.21.63.14,1.24.34,1.81.58l-.65,1.65c-.52-.21-1.06-.38-1.59-.52-.54-.14-1.1-.2-1.69-.2-.51,0-.94.07-1.29.22s-.6.35-.78.61-.26.56-.26.91c0,.41.1.75.29,1.02.19.27.5.52.92.75.42.23.98.48,1.67.75.77.29,1.42.59,1.97.93s.96.73,1.24,1.2c.28.46.42,1.04.42,1.74Z" fill="#fff"/><path d="M45.97,284.09h-5.32v-1.15l1.63-.46v-10.01l-1.63-.48v-1.15h5.32v1.15l-1.61.48v10.01l1.61.46v1.15Z" fill="#fff"/><path d="M56.42,280.51c0,.79-.2,1.47-.6,2.02-.4.56-.97.99-1.71,1.29-.74.3-1.63.46-2.65.46-.5,0-.98-.03-1.44-.08-.46-.06-.89-.13-1.29-.23-.4-.1-.75-.22-1.06-.37v-1.89c.51.22,1.11.42,1.8.6.69.18,1.4.27,2.11.27.61,0,1.13-.08,1.54-.24s.72-.38.92-.67c.2-.28.31-.62.31-1,0-.41-.11-.75-.32-1.03-.21-.28-.54-.54-.98-.78-.44-.24-1.03-.5-1.78-.77-.51-.19-.98-.39-1.39-.62-.42-.23-.78-.5-1.09-.81-.31-.31-.55-.67-.72-1.08-.17-.41-.25-.89-.25-1.43,0-.73.19-1.36.57-1.88.38-.52.9-.92,1.56-1.2.67-.28,1.44-.42,2.32-.42.74,0,1.43.07,2.06.21.63.14,1.24.34,1.81.58l-.65,1.65c-.52-.21-1.06-.38-1.59-.52-.54-.14-1.1-.2-1.69-.2-.51,0-.94.07-1.29.22s-.6.35-.78.61-.26.56-.26.91c0,.41.1.75.29,1.02.19.27.5.52.92.75.42.23.98.48,1.67.75.77.29,1.42.59,1.97.93s.96.73,1.24,1.2c.28.46.42,1.04.42,1.74Z" fill="#fff"/><path d="M63.71,284.09h-2.07v-11.53h-4.11v-1.73h10.29v1.73h-4.11v11.53Z" fill="#fff"/><path d="M77.61,284.09h-7.72v-13.26h7.72v1.71h-5.65v3.79h5.3v1.69h-5.3v4.35h5.65v1.73Z" fill="#fff"/><path d="M86.56,284.09l-4.15-11.27h-.08c.01.25.03.58.06,1,.03.42.04.87.06,1.36.01.48.02.96.02,1.43v7.48h-1.88v-13.26h2.96l3.94,10.64h.08l4.05-10.64h2.96v13.26h-2.02v-7.59c0-.43,0-.88.03-1.35.02-.46.04-.9.06-1.31.02-.41.04-.74.05-1h-.08l-4.26,11.25h-1.79Z" fill="#fff"/><path d="M106.76,284.09l-1.48-3.81h-5.26l-1.46,3.81h-2.17l5.2-13.31h2.15l5.2,13.31h-2.19ZM103.34,274.85c-.04-.12-.11-.33-.2-.62-.1-.29-.19-.59-.28-.9s-.16-.56-.21-.74c-.06.26-.13.54-.21.83-.08.29-.15.56-.23.81-.08.25-.14.46-.19.63l-1.38,3.7h4.07l-1.36-3.7Z" fill="#fff"/><path d="M120.01,284.09h-5.32v-1.15l1.63-.46v-10.01l-1.63-.48v-1.15h5.32v1.15l-1.61.48v10.01l1.61.46v1.15Z" fill="#fff"/><path d="M133.83,284.09h-2.52l-6.93-10.71h-.08c.03.32.05.68.07,1.08s.04.81.06,1.24.03.88.03,1.34v7.06h-1.88v-13.26h2.5l6.91,10.66h.06c-.01-.26-.03-.59-.04-.98-.01-.4-.03-.82-.05-1.27s-.04-.88-.05-1.27v-7.13h1.92v13.26Z" fill="#fff"/><path d="M145.35,280.51c0,.79-.2,1.47-.6,2.02-.4.56-.97.99-1.71,1.29-.74.3-1.63.46-2.65.46-.5,0-.98-.03-1.44-.08-.46-.06-.89-.13-1.29-.23-.4-.1-.75-.22-1.06-.37v-1.89c.51.22,1.11.42,1.8.6.69.18,1.4.27,2.11.27.61,0,1.13-.08,1.54-.24s.72-.38.92-.67c.2-.28.31-.62.31-1,0-.41-.11-.75-.32-1.03-.21-.28-.54-.54-.98-.78-.44-.24-1.03-.5-1.78-.77-.51-.19-.98-.39-1.39-.62-.42-.23-.78-.5-1.09-.81-.31-.31-.55-.67-.72-1.08-.17-.41-.25-.89-.25-1.43,0-.73.19-1.36.57-1.88.38-.52.9-.92,1.56-1.2.67-.28,1.44-.42,2.32-.42.74,0,1.43.07,2.06.21.63.14,1.24.34,1.81.58l-.65,1.65c-.52-.21-1.06-.38-1.59-.52-.54-.14-1.1-.2-1.69-.2-.51,0-.94.07-1.29.22s-.6.35-.78.61-.26.56-.26.91c0,.41.1.75.29,1.02.19.27.5.52.92.75.42.23.98.48,1.67.75.77.29,1.42.59,1.97.93s.96.73,1.24,1.2c.28.46.42,1.04.42,1.74Z" fill="#fff"/><path d="M152.65,284.09h-2.07v-11.53h-4.11v-1.73h10.29v1.73h-4.11v11.53Z" fill="#fff"/><path d="M163.05,284.09h-5.32v-1.15l1.63-.46v-10.01l-1.63-.48v-1.15h5.32v1.15l-1.61.48v10.01l1.61.46v1.15Z" fill="#fff"/><path d="M170.23,284.09h-2.07v-11.53h-4.11v-1.73h10.29v1.73h-4.11v11.53Z" fill="#fff"/><path d="M187.05,279.41c0,.92-.2,1.74-.59,2.48s-.99,1.32-1.79,1.75c-.81.43-1.82.64-3.05.64-1.74,0-3.06-.45-3.96-1.35s-1.35-2.08-1.35-3.56v-8.54h2.07v8.45c0,1.09.28,1.91.83,2.46s1.39.83,2.52.83c.77,0,1.4-.14,1.88-.41.49-.27.84-.65,1.07-1.14.22-.49.34-1.07.34-1.75v-8.43h2.05v8.58Z" fill="#fff"/><path d="M196.48,272.38c-.68,0-1.29.12-1.83.34-.54.23-1.01.57-1.39,1.01-.38.45-.68.98-.87,1.62-.2.63-.3,1.34-.3,2.14,0,1.04.16,1.94.49,2.7.33.76.82,1.35,1.47,1.75.65.41,1.47.61,2.46.61.6,0,1.17-.06,1.72-.17.54-.11,1.08-.25,1.6-.41v1.73c-.54.2-1.08.34-1.64.44-.56.09-1.21.14-1.97.14-1.41,0-2.58-.28-3.51-.83-.93-.56-1.64-1.35-2.1-2.38s-.7-2.23-.7-3.6c0-1,.14-1.92.43-2.76.29-.83.71-1.56,1.27-2.16.56-.61,1.25-1.07,2.07-1.4.83-.33,1.77-.49,2.83-.49.69,0,1.37.07,2.04.2.67.14,1.27.33,1.82.59l-.77,1.67c-.44-.2-.91-.37-1.43-.52s-1.08-.22-1.68-.22Z" fill="#fff"/><path d="M207,284.09h-5.32v-1.15l1.63-.46v-10.01l-1.63-.48v-1.15h5.32v1.15l-1.61.48v10.01l1.61.46v1.15Z" fill="#fff"/><path d="M221.65,277.45c0,1.03-.13,1.96-.39,2.79-.26.83-.66,1.56-1.19,2.16s-1.2,1.07-2,1.39c-.8.32-1.73.48-2.79.48s-2.03-.16-2.83-.49c-.8-.33-1.47-.79-2-1.39-.53-.6-.93-1.32-1.18-2.16s-.38-1.78-.38-2.8c0-1.36.23-2.55.7-3.57.47-1.01,1.17-1.81,2.12-2.38.95-.57,2.14-.85,3.59-.85s2.58.28,3.52.84c.94.56,1.65,1.36,2.12,2.38s.71,2.22.71,3.59ZM211.09,277.45c0,1.05.15,1.96.44,2.73.29.77.75,1.36,1.37,1.76.62.41,1.41.61,2.37.61s1.77-.2,2.38-.61c.61-.41,1.07-1,1.36-1.76.29-.77.44-1.68.44-2.73,0-1.58-.33-2.83-.99-3.73-.66-.9-1.72-1.36-3.18-1.36-.97,0-1.77.2-2.39.61-.62.41-1.08.99-1.37,1.75-.29.75-.44,1.67-.44,2.73Z" fill="#fff"/><path d="M235.88,284.09h-2.52l-6.93-10.71h-.08c.03.32.05.68.07,1.08s.04.81.06,1.24.03.88.03,1.34v7.06h-1.88v-13.26h2.5l6.91,10.66h.06c-.01-.26-.03-.59-.04-.98-.01-.4-.03-.82-.05-1.27s-.04-.88-.05-1.27v-7.13h1.92v13.26Z" fill="#fff"/><path d="M248.07,284.09l-1.48-3.81h-5.26l-1.46,3.81h-2.17l5.2-13.31h2.15l5.2,13.31h-2.19ZM244.65,274.85c-.04-.12-.11-.33-.2-.62-.1-.29-.19-.59-.28-.9-.09-.31-.16-.56-.21-.74-.06.26-.13.54-.21.83-.08.29-.15.56-.23.81-.08.25-.14.46-.19.63l-1.38,3.7h4.07l-1.36-3.7Z" fill="#fff"/><path d="M252.06,284.09v-13.26h2.09v11.51h5.86v1.75h-7.95Z" fill="#fff"/><path d="M278.43,277.32c0,1.49-.29,2.73-.86,3.74-.58,1.01-1.4,1.77-2.47,2.27-1.07.51-2.35.76-3.85.76h-3.94v-13.26h4.32c1.41,0,2.62.25,3.63.74,1.01.5,1.79,1.22,2.34,2.17.55.95.83,2.14.83,3.57ZM276.24,277.37c0-1.1-.19-2.01-.56-2.73-.37-.72-.92-1.25-1.63-1.6s-1.59-.52-2.61-.52h-2.04v9.86h1.67c1.73,0,3.02-.42,3.88-1.25.86-.83,1.29-2.09,1.29-3.76Z" fill="#fff"/><path d="M289.1,284.09h-7.72v-13.26h7.72v1.71h-5.64v3.79h5.3v1.69h-5.3v4.35h5.64v1.73Z" fill="#fff"/><path d="M300.87,270.84c1.78,0,3.08.34,3.91,1.03.83.69,1.24,1.66,1.24,2.92,0,.56-.09,1.09-.27,1.6-.18.51-.48.97-.9,1.37-.42.41-.98.73-1.68.96-.7.23-1.55.34-2.56.34h-1.48v5.03h-2.09v-13.26h3.84ZM300.74,272.53h-1.61v4.85h1.27c.77,0,1.41-.08,1.94-.25.52-.17.92-.43,1.17-.8s.38-.85.38-1.46c0-.77-.25-1.35-.76-1.75-.51-.4-1.3-.59-2.39-.59Z" fill="#fff"/><path d="M312.66,270.84c1.15,0,2.11.14,2.86.43.75.29,1.32.71,1.69,1.26.37.56.56,1.26.56,2.1,0,.68-.13,1.25-.38,1.72-.26.46-.59.84-.99,1.13-.4.29-.83.53-1.3.71l3.8,5.9h-2.42l-3.25-5.37h-2.4v5.37h-2.09v-13.26h3.92ZM312.56,272.51h-1.73v4.59h1.81c1.01,0,1.76-.2,2.25-.59.49-.4.73-.99.73-1.78,0-.52-.11-.94-.33-1.26-.22-.32-.55-.56-1-.71-.45-.15-1.02-.23-1.73-.23Z" fill="#fff"/><path d="M329.46,284.09l-1.48-3.81h-5.26l-1.46,3.81h-2.17l5.2-13.31h2.15l5.2,13.31h-2.19ZM326.04,274.85c-.04-.12-.11-.33-.2-.62-.1-.29-.19-.59-.28-.9-.09-.31-.16-.56-.21-.74-.06.26-.13.54-.21.83-.08.29-.15.56-.23.81-.08.25-.14.46-.19.63l-1.38,3.7h4.07l-1.36-3.7ZM328.52,266.81c-.14.17-.33.38-.58.63-.24.25-.51.5-.79.77-.28.27-.56.52-.85.76-.28.24-.54.45-.79.62h-1.34v-.22c.19-.24.41-.51.65-.84.24-.32.48-.65.71-.99.23-.34.42-.65.58-.92h2.4v.19Z" fill="#fff"/><path d="M339,272.38c-.68,0-1.29.12-1.83.34-.54.23-1.01.57-1.39,1.01-.38.45-.68.98-.87,1.62-.2.63-.3,1.34-.3,2.14,0,1.04.16,1.94.49,2.7.33.76.82,1.35,1.47,1.75.65.41,1.47.61,2.46.61.6,0,1.17-.06,1.72-.17s1.08-.25,1.6-.41v1.73c-.54.2-1.08.34-1.64.44-.56.09-1.21.14-1.97.14-1.41,0-2.58-.28-3.51-.83-.93-.56-1.63-1.35-2.1-2.38-.47-1.03-.7-2.23-.7-3.6,0-1,.14-1.92.43-2.76.29-.83.71-1.56,1.27-2.16.56-.61,1.25-1.07,2.07-1.4.83-.33,1.77-.49,2.83-.49.69,0,1.37.07,2.04.2.67.14,1.27.33,1.82.59l-.77,1.67c-.44-.2-.91-.37-1.43-.52s-1.08-.22-1.68-.22Z" fill="#fff"/><path d="M349.91,284.09h-2.07v-11.53h-4.11v-1.73h10.29v1.73h-4.11v11.53Z" fill="#fff"/><path d="M360.31,284.09h-5.32v-1.15l1.63-.46v-10.01l-1.63-.48v-1.15h5.32v1.15l-1.61.48v10.01l1.61.46v1.15Z" fill="#fff"/><path d="M368.78,272.38c-.68,0-1.29.12-1.83.34-.54.23-1.01.57-1.39,1.01-.38.45-.68.98-.87,1.62-.2.63-.3,1.34-.3,2.14,0,1.04.16,1.94.49,2.7.33.76.82,1.35,1.47,1.75.65.41,1.47.61,2.46.61.6,0,1.17-.06,1.72-.17s1.08-.25,1.6-.41v1.73c-.54.2-1.08.34-1.64.44-.56.09-1.21.14-1.97.14-1.41,0-2.58-.28-3.51-.83-.93-.56-1.63-1.35-2.1-2.38-.47-1.03-.7-2.23-.7-3.6,0-1,.14-1.92.43-2.76.29-.83.71-1.56,1.27-2.16.56-.61,1.25-1.07,2.07-1.4.83-.33,1.77-.49,2.83-.49.69,0,1.37.07,2.04.2.67.14,1.27.33,1.82.59l-.77,1.67c-.44-.2-.91-.37-1.43-.52s-1.08-.22-1.68-.22Z" fill="#fff"/><path d="M383.62,284.09l-1.48-3.81h-5.26l-1.46,3.81h-2.17l5.2-13.31h2.15l5.2,13.31h-2.19ZM380.21,274.85c-.04-.12-.11-.33-.2-.62-.1-.29-.19-.59-.28-.9-.09-.31-.16-.56-.21-.74-.06.26-.13.54-.21.83-.08.29-.15.56-.23.81-.08.25-.14.46-.19.63l-1.38,3.7h4.07l-1.36-3.7Z" fill="#fff"/><path d="M395.53,280.51c0,.79-.2,1.47-.6,2.02-.4.56-.97.99-1.71,1.29-.74.3-1.62.46-2.65.46-.5,0-.98-.03-1.44-.08s-.89-.13-1.29-.23c-.4-.1-.75-.22-1.06-.37v-1.89c.51.22,1.11.42,1.8.6.69.18,1.4.27,2.11.27.61,0,1.13-.08,1.54-.24.41-.16.72-.38.92-.67.21-.28.31-.62.31-1,0-.41-.11-.75-.32-1.03-.21-.28-.54-.54-.98-.78-.44-.24-1.03-.5-1.78-.77-.51-.19-.98-.39-1.39-.62-.42-.23-.78-.5-1.09-.81-.31-.31-.55-.67-.72-1.08-.17-.41-.25-.89-.25-1.43,0-.73.19-1.36.57-1.88.38-.52.9-.92,1.57-1.2.67-.28,1.44-.42,2.32-.42.74,0,1.43.07,2.06.21.63.14,1.24.34,1.81.58l-.65,1.65c-.53-.21-1.06-.38-1.59-.52-.54-.14-1.1-.2-1.69-.2-.51,0-.94.07-1.29.22s-.6.35-.78.61-.26.56-.26.91c0,.41.1.75.29,1.02.19.27.5.52.92.75.42.23.98.48,1.67.75.77.29,1.42.59,1.97.93s.96.73,1.24,1.2c.28.46.42,1.04.42,1.74Z" fill="#fff"/><path d="M142.94,293.12c1.78,0,3.08.34,3.91,1.03.83.69,1.24,1.66,1.24,2.92,0,.56-.09,1.09-.27,1.6-.18.51-.48.97-.9,1.37-.42.41-.98.73-1.68.96-.7.23-1.55.34-2.56.34h-1.48v5.03h-2.09v-13.26h3.84ZM142.81,294.81h-1.61v4.85h1.27c.77,0,1.41-.08,1.94-.25.52-.17.92-.43,1.17-.8s.38-.85.38-1.46c0-.77-.25-1.35-.76-1.75-.51-.4-1.3-.59-2.39-.59Z" fill="#fff"/><path d="M154.73,293.12c1.15,0,2.1.14,2.86.43.76.29,1.32.71,1.69,1.26.37.56.56,1.26.56,2.1,0,.68-.13,1.25-.38,1.72-.26.46-.59.84-.99,1.13-.4.29-.84.53-1.3.71l3.8,5.9h-2.42l-3.25-5.37h-2.4v5.37h-2.09v-13.26h3.92ZM154.63,294.79h-1.73v4.59h1.8c1.01,0,1.76-.2,2.25-.59.49-.4.73-.99.73-1.78,0-.52-.11-.94-.33-1.26-.22-.32-.55-.56-1-.71-.45-.15-1.02-.23-1.73-.23Z" fill="#fff"/><path d="M175.06,299.73c0,1.03-.13,1.96-.39,2.79-.26.83-.66,1.56-1.19,2.16-.53.61-1.2,1.07-2,1.39-.8.32-1.73.48-2.79.48s-2.03-.16-2.83-.49c-.8-.33-1.47-.79-2-1.39-.53-.6-.93-1.32-1.18-2.16s-.38-1.78-.38-2.8c0-1.36.23-2.55.7-3.57.47-1.01,1.17-1.81,2.12-2.38.95-.57,2.14-.85,3.59-.85s2.58.28,3.52.84,1.65,1.36,2.12,2.38c.47,1.02.71,2.22.71,3.59ZM164.5,299.73c0,1.05.15,1.96.44,2.73s.75,1.36,1.37,1.76c.62.41,1.41.61,2.37.61s1.77-.2,2.38-.61c.61-.41,1.07-1,1.36-1.76.29-.77.44-1.68.44-2.73,0-1.58-.33-2.83-.99-3.73-.66-.9-1.72-1.36-3.18-1.36-.97,0-1.77.2-2.39.61-.62.41-1.08.99-1.37,1.75s-.44,1.67-.44,2.73Z" fill="#fff"/><path d="M180.09,306.38h-2.05v-13.26h7.72v1.71h-5.66v4.33h5.3v1.71h-5.3v5.51Z" fill="#fff"/><path d="M195.9,306.38h-7.72v-13.26h7.72v1.71h-5.65v3.79h5.3v1.69h-5.3v4.35h5.65v1.73Z" fill="#fff"/><path d="M206.74,302.79c0,.79-.2,1.47-.6,2.02-.4.56-.97.99-1.71,1.29-.74.3-1.63.46-2.65.46-.5,0-.98-.03-1.44-.08-.46-.06-.89-.13-1.29-.23-.4-.1-.75-.22-1.06-.37v-1.89c.51.22,1.11.42,1.8.6.69.18,1.4.27,2.11.27.61,0,1.13-.08,1.54-.24s.72-.38.92-.67c.2-.28.31-.62.31-1,0-.41-.11-.75-.32-1.03-.21-.28-.54-.54-.98-.78-.44-.24-1.03-.5-1.78-.77-.51-.19-.98-.39-1.39-.62-.42-.23-.78-.5-1.09-.81-.31-.31-.55-.67-.72-1.08-.17-.41-.25-.89-.25-1.43,0-.73.19-1.36.57-1.88.38-.52.9-.92,1.56-1.2.67-.28,1.44-.42,2.32-.42.74,0,1.43.07,2.06.21.63.14,1.24.34,1.81.58l-.65,1.65c-.52-.21-1.06-.38-1.59-.52-.54-.14-1.1-.2-1.69-.2-.51,0-.94.07-1.29.22s-.6.35-.78.61-.26.56-.26.91c0,.41.1.75.29,1.02.19.27.5.52.92.75.42.23.98.48,1.67.75.77.29,1.42.59,1.97.93s.96.73,1.24,1.2c.28.46.42,1.04.42,1.74Z" fill="#fff"/><path d="M213.66,306.38h-5.32v-1.15l1.63-.46v-10.01l-1.63-.48v-1.15h5.32v1.15l-1.61.48v10.01l1.61.46v1.15Z" fill="#fff"/><path d="M228.3,299.73c0,1.03-.13,1.96-.39,2.79-.26.83-.66,1.56-1.19,2.16s-1.2,1.07-2,1.39c-.8.32-1.73.48-2.79.48s-2.03-.16-2.83-.49c-.8-.33-1.47-.79-2-1.39-.53-.6-.92-1.32-1.18-2.16s-.38-1.78-.38-2.8c0-1.36.23-2.55.7-3.57.47-1.01,1.17-1.81,2.12-2.38.95-.57,2.14-.85,3.59-.85s2.58.28,3.52.84c.94.56,1.65,1.36,2.12,2.38s.71,2.22.71,3.59ZM217.75,299.73c0,1.05.15,1.96.44,2.73.29.77.75,1.36,1.37,1.76.62.41,1.41.61,2.37.61s1.77-.2,2.38-.61c.61-.41,1.07-1,1.36-1.76.29-.77.44-1.68.44-2.73,0-1.58-.33-2.83-.99-3.73-.66-.9-1.72-1.36-3.18-1.36-.97,0-1.77.2-2.39.61-.62.41-1.08.99-1.37,1.75-.29.75-.44,1.67-.44,2.73Z" fill="#fff"/><path d="M242.53,306.38h-2.52l-6.93-10.71h-.08c.03.32.05.68.07,1.08s.04.81.06,1.24.03.88.03,1.34v7.06h-1.88v-13.26h2.5l6.91,10.66h.06c-.01-.26-.03-.59-.04-.98-.01-.4-.03-.82-.05-1.27s-.04-.88-.05-1.27v-7.13h1.92v13.26Z" fill="#fff"/><path d="M254.72,306.38l-1.48-3.81h-5.26l-1.46,3.81h-2.17l5.2-13.31h2.15l5.2,13.31h-2.19ZM251.31,297.13c-.04-.12-.11-.33-.2-.62-.1-.29-.19-.59-.28-.9-.09-.31-.16-.56-.21-.74-.06.26-.13.54-.21.83-.08.29-.15.56-.23.81-.08.25-.14.46-.19.63l-1.38,3.7h4.07l-1.36-3.7Z" fill="#fff"/><path d="M258.72,306.38v-13.26h2.09v11.51h5.86v1.75h-7.95Z" fill="#fff"/><path d="M276.73,306.38h-7.72v-13.26h7.72v1.71h-5.64v3.79h5.3v1.69h-5.3v4.35h5.64v1.73Z" fill="#fff"/><path d="M287.58,302.79c0,.79-.2,1.47-.6,2.02-.4.56-.97.99-1.71,1.29-.74.3-1.62.46-2.65.46-.5,0-.98-.03-1.44-.08s-.89-.13-1.29-.23c-.4-.1-.75-.22-1.06-.37v-1.89c.51.22,1.11.42,1.8.6.69.18,1.4.27,2.11.27.61,0,1.13-.08,1.54-.24.41-.16.72-.38.92-.67.21-.28.31-.62.31-1,0-.41-.11-.75-.32-1.03-.21-.28-.54-.54-.98-.78-.44-.24-1.03-.5-1.78-.77-.51-.19-.98-.39-1.39-.62-.42-.23-.78-.5-1.09-.81-.31-.31-.55-.67-.72-1.08-.17-.41-.25-.89-.25-1.43,0-.73.19-1.36.57-1.88.38-.52.9-.92,1.57-1.2.67-.28,1.44-.42,2.32-.42.74,0,1.43.07,2.06.21.63.14,1.24.34,1.81.58l-.65,1.65c-.53-.21-1.06-.38-1.59-.52-.54-.14-1.1-.2-1.69-.2-.51,0-.94.07-1.29.22s-.6.35-.78.61-.26.56-.26.91c0,.41.1.75.29,1.02.19.27.5.52.92.75.42.23.98.48,1.67.75.77.29,1.42.59,1.97.93s.96.73,1.24,1.2c.28.46.42,1.04.42,1.74Z" fill="#fff"/></g></svg>