<?xml version="1.0" encoding="UTF-8"?>
<svg id="a" xmlns="http://www.w3.org/2000/svg" viewBox="0 0 425.01 260">
  <path d="M237.32,92.94c0,.93-.05,1.86-.14,2.78-.27,2.68-.93,5.24-1.92,7.64-1.71,4.2-4.45,7.9-7.9,10.81-.06.06-.12.11-.18.15-3.57,2.99-7.88,5.15-12.66,6.17h-.01c-2.05.45-4.19.68-6.38.68s-4.33-.23-6.38-.68h-.01c-4.77-1.02-9.09-3.18-12.67-6.17-.06-.03-.11-.08-.17-.14-3.45-2.92-6.19-6.62-7.9-10.82-1-2.41-1.65-4.97-1.92-7.64-.09-.92-.14-1.84-.14-2.78,0-.15,0-.3.01-.45,1.83-.39,3.68-.75,5.54-1.06,1.46-.25,2.94-.49,4.42-.68,1.93-.27,3.88-.5,5.84-.68,0,0,0,0,.01,0,1.1-.11,2.21-.19,3.31-.27.55-.04,1.11-.08,1.66-.11,2.78-.17,5.59-.25,8.41-.25,4.52,0,8.98.21,13.38.63h.01c1.96.19,3.91.42,5.84.69,1.48.19,2.95.43,4.42.68,1.86.31,3.71.67,5.54,1.06.01.15.01.3.01.45Z" fill="#fff"/>
  <path d="M237.43,170.12c0,3.31-.02,6.67-.04,9.7-.02,3.66-.04,6.85-.06,8.9,0,1.55-.01,2.45-.01,2.45h-58.92v-2.45c.01-1.98.01-5.01.02-8.49.02-3.14.04-6.64.07-10.11.02-3.51.06-6.97.11-9.95.07-4.4.17-7.75.31-8.65h.08c.35-5.05,2.08-9.75,4.83-13.72,1.23-1.78,2.67-3.42,4.28-4.88.13-.13.26-.24.4-.37.12-.11.24-.21.37-.31.95-.81,1.95-1.56,3.01-2.24,4.64-3,10.22-4.75,16.22-4.75s11.6,1.76,16.24,4.77c1.05.68,2.04,1.42,2.99,2.23.12.1.24.2.36.31.14.12.27.23.4.36,1.6,1.45,3.04,3.08,4.26,4.85,2.77,3.98,4.51,8.68,4.86,13.75h.08c.09.58.12,4.11.12,8.83.01,2.93.01,6.32-.01,9.77Z" fill="#fff"/>
  <path d="M238.28,77.12c.01,2.68-.03,5.49-.14,8.16-.06,1.42-.15,2.79-.26,4.1-.27-.06-.54-.12-.82-.18-.82-.18-1.64-.34-2.47-.5-2.4-.47-4.8-.87-7.24-1.2-3.13-.44-6.3-.77-9.51-.98-3.21-.22-6.45-.34-9.73-.34s-6.52.12-9.73.34c-3.2.21-6.37.55-9.51.98-2.44.33-4.85.73-7.24,1.2-.83.16-1.65.32-2.47.5-.39.08-.78.17-1.17.24-.11-1.54-.19-3.05-.25-4.5-.13-2.8-.18-5.43-.19-7.83-.03-2.98.02-5.61.09-7.75.14-3.96.35-6.31.35-6.31l4.17,1.95,6.71,3.14,2.93,1.36,16.29,7.62h.02l16.2-7.66,3.02-1.42,6.61-3.13,3.92-1.85s.14,2.37.25,5.88c.07,2.34.14,5.18.15,8.18Z" fill="#fff"/>
  <line x1="178.01" y1="89.45" x2="178.01" y2="89.44" fill="none" stroke="#9e9d9c" stroke-miterlimit="10" stroke-width=".5"/>
  <path d="M237.88,89.42v-.05" fill="none" stroke="#9e9d9c" stroke-miterlimit="10" stroke-width=".5"/>
  <polygon points="246.59 56.57 242.09 58.52 231.92 62.92 227.35 64.89 221.05 67.62 215.41 70.06 208.12 73.22 200.65 69.89 195.37 67.53 188.89 64.64 184.55 62.7 175.15 58.52 169.65 56.06 181.3 51.17 188.89 47.99 208.12 39.92 227.35 48.24 234.69 51.42 246.59 56.57" fill="#fff"/>
  <path d="M236.97,209.61c0,1.79-.7,3.5-2,5.06-1.66,2.03-4.29,3.82-7.61,5.24-3.75,1.61-8.38,2.76-13.49,3.25-.22-.67-.56-1.29-1.01-1.83-1.11-1.34-2.82-2.21-4.73-2.21s-3.63.87-4.73,2.21c-.44.55-.79,1.16-1.01,1.83-5.13-.5-9.75-1.65-13.49-3.25-3.32-1.42-5.96-3.21-7.61-5.24-1.3-1.57-2-3.27-2-5.06,0-.78.13-1.55.4-2.29.62-1.83,2.01-3.54,4-5.05,1.44-1.1,3.2-2.1,5.22-2.96,3.22-1.38,7.1-2.42,11.38-3,2.5-.34,5.14-.53,7.85-.53s5.36.19,7.85.53c4.28.57,8.16,1.62,11.38,3,2.01.86,3.78,1.86,5.22,2.96,1.98,1.51,3.36,3.22,4,5.05.27.74.4,1.51.4,2.29Z" fill="#fff"/>
  <path d="M237.75,225.92c-.04,2.72-.1,5.75-.2,8.74-.12,3.51-.3,6.98-.57,9.86h-57.7c-.55-3.03-.88-6.68-1.06-10.33-.15-2.83-.2-5.69-.21-8.27,0-3.45.07-6.41.13-8.21.04-1.18.07-1.86.07-1.86,0,0,.3.35.91.92,1.5,1.42,4.86,4.25,9.78,6.38,3.38,1.48,7.57,2.63,12.34,2.78.31,0,.63,0,.96,0,.24,1.46,1.05,2.72,2.2,3.6,1.03.79,2.34,1.26,3.75,1.26s2.72-.47,3.75-1.26c1.15-.89,1.95-2.15,2.2-3.61,5.28,0,9.77-1.16,13.29-2.69,5.08-2.19,8.33-5.15,9.68-6.56.5-.51.75-.82.75-.82v1.54c.01,1.76.01,4.87-.03,8.53Z" fill="#fff"/>
  <path d="M210.95,224.95c0,.34-.06.66-.18.96-.22.58-.65,1.07-1.21,1.38-.42.25-.92.39-1.44.39s-1.02-.14-1.44-.39c-.55-.31-.99-.8-1.21-1.38-.12-.3-.18-.62-.18-.96,0-.52.14-.98.4-1.39.03-.07.06-.13.11-.18.5-.71,1.35-1.17,2.32-1.17s1.8.46,2.32,1.17c.04.05.08.11.11.18.25.41.4.88.4,1.39Z" fill="#fff"/>
  <path d="M143.84,188.75c0,11.82-2.96,21.85-8.88,30.07-5.92,8.22-14.38,14.55-25.36,18.98-10.99,4.43-23.93,6.65-38.83,6.65-7.64,0-14.95-.37-21.92-1.11-6.98-.74-13.32-1.8-19.05-3.19-5.73-1.38-10.79-3.09-15.19-5.13v-23.83c6.88,2.96,15.42,5.64,25.65,8.04,10.22,2.4,20.77,3.6,31.66,3.6,10.12,0,18.62-1.29,25.5-3.88,6.88-2.58,12.03-6.28,15.47-11.08,3.44-4.8,5.16-10.43,5.16-16.9s-1.43-11.92-4.3-16.35c-2.87-4.43-7.79-8.54-14.76-12.33-6.98-3.78-16.67-7.8-29.08-12.05-8.79-3.14-16.48-6.51-23.07-10.11s-12.08-7.71-16.48-12.33c-4.4-4.62-7.69-9.88-9.89-15.79-2.2-5.91-3.29-12.75-3.29-20.51,0-10.53,2.77-19.54,8.31-27.02,5.54-7.48,13.23-13.25,23.07-17.32,9.84-4.06,21.15-6.1,33.95-6.1,11.27,0,21.58,1.02,30.95,3.05,9.36,2.03,17.86,4.71,25.5,8.04l-8.02,21.34c-7.07-2.95-14.76-5.45-23.07-7.48-8.31-2.03-16.96-3.05-25.93-3.05s-15.76,1.2-21.49,3.6c-5.73,2.4-10.03,5.78-12.89,10.11-2.87,4.34-4.3,9.38-4.3,15.1,0,6.65,1.43,12.19,4.3,16.63,2.87,4.43,7.54,8.41,14.04,11.92,6.49,3.51,15.28,7.3,26.36,11.36,12.03,4.25,22.21,8.82,30.52,13.72,8.31,4.9,14.61,10.76,18.91,17.6,4.3,6.84,6.45,15.43,6.45,25.77Z" fill="#fff"/>
  <path d="M330.93,40.78c27.52,0,47.58,5.23,60.16,15.69,12.58,10.46,18.87,25.2,18.87,44.21,0,8.37-1.43,16.4-4.28,24.1-2.85,7.7-7.52,14.6-14.01,20.68-6.49,6.09-15.14,10.89-25.95,14.4-10.82,3.52-24.09,5.28-39.81,5.28h-24.18v79.29h-26.54V40.78h55.74ZM328.57,62.75h-26.84v80.43h21.23c13.37,0,24.48-1.38,33.33-4.14,8.85-2.75,15.43-7.17,19.76-13.26,4.32-6.08,6.49-14.07,6.49-23.96,0-13.12-4.33-22.91-12.98-29.38-8.65-6.46-22.32-9.7-40.99-9.7Z" fill="#fff"/>
</svg>
